# xmcd
#
# Track frame offsets: 
#        150
#        21059
#        38612
#        54007
#        70903
#        87815
#        101917
#        124120
#        138423
#        157622
#
# Disc length: 2312 seconds
#
# Revision: 0
# Processed by: cddbd v1.5.1PL0 Copyright (c) Steve Scherf et al.
# Submitted via: ExactAudioCopy v0.95a5
#
DISCID=7109060a
DTITLE=Erja Lyytinen - It's A Blessing
DYEAR=2005
DGENRE=Blues
TTITLE0=Welcome Song
TTITLE1=Nobody Knows You When You're Down And Out
TTITLE2=Frustrated Woman Blues
TTITLE3=Whiskey Days
TTITLE4=Hurry Make Love
TTITLE5=Habanero
TTITLE6=Love Me
TTITLE7=Your Brown Eyes
TTITLE8=Why
TTITLE9=It's A Blessing
EXTD=
EXTT0=
EXTT1=
EXTT2=
EXTT3=
EXTT4=
EXTT5=
EXTT6=
EXTT7=
EXTT8=
EXTT9=
PLAYORDER=
